Coordinates
version=1
nRows=24
nColumns=24
inDegrees=yes

Units are S.I. units (second, meters, Newtons, ...)
Angles are in degrees.

endheader
time	pelvis_tilt	pelvis_list	pelvis_rotation	pelvis_tx	pelvis_ty	pelvis_tz	hip_flexion_r	hip_adduction_r	hip_rotation_r	knee_angle_r	ankle_angle_r	subtalar_angle_r	mtp_angle_r	hip_flexion_l	hip_adduction_l	hip_rotation_l	knee_angle_l	ankle_angle_l	subtalar_angle_l	mtp_angle_l	lumbar_extension	lumbar_bending	lumbar_rotation
      3.91000000	    -15.06887998	      3.09069492	    -11.34304462	      1.88961637	     -0.03610029	     -0.40630625	     -2.64561102	     -0.91940023	      7.00601238	     -9.38162160	      4.52889245	     10.82158577	     16.45243041	     38.74671084	     -3.10869099	    -21.55886903	     -1.26306367	    -13.96659248	     14.36923492	     12.78321305	     14.02042881	     -2.21842060	     11.40216192
      3.91500000	    -15.12150282	      3.12467662	    -11.58331848	      1.89627464	     -0.03691812	     -0.40618425	     -2.73995872	     -1.05148424	      7.05770246	     -9.75473527	      4.33554245	     11.17561886	     16.60151751	     38.85470982	     -3.22198693	    -21.71728386	     -1.39797821	    -13.75185507	     14.53503348	     12.63610482	     14.09672026	     -2.22888186	     11.56994871
      3.92000000	    -15.21681611	      3.19159811	    -11.75003823	      1.90316873	     -0.03783855	     -0.40610108	     -2.81114895	     -1.22350458	      6.99410723	    -10.09655977	      4.12518165	     11.66418186	     16.87855395	     39.06943113	     -3.29396791	    -21.96153995	     -1.77855785	    -13.42101498	     14.90277092	     12.39313451	     14.25376974	     -2.29231450	     11.65301156
      3.92500000	    -15.22501194	      3.18740856	    -11.96422048	      1.90997413	     -0.03866047	     -0.40597671	     -2.97408133	     -1.32918653	      7.09485363	    -10.45393110	      3.86792636	     11.97106432	     16.97368437	     39.18664805	     -3.44892424	    -22.01328793	     -2.25953478	    -13.24690951	     14.88072433	     12.39620288	     14.28192761	     -2.28753680	     11.77260460
      3.93000000	    -15.33796845	      3.23073707	    -12.14149057	      1.91699051	     -0.03965335	     -0.40586903	     -2.99471687	     -1.47910814	      6.96271428	    -10.85755568	      3.60055105	     12.51980660	     17.41730148	     39.45562910	     -3.57806865	    -22.14656312	     -2.93355210	    -12.96854237	     15.02926186	     12.17941511	     14.46141291	     -2.32088502	     11.88504243
      3.93500000	    -15.32509255	      3.24785718	    -12.37978260	      1.92399464	     -0.04047763	     -0.40569200	     -3.16145795	     -1.62138165	      7.09793612	    -11.24372440	      3.29949809	     12.85145998	     17.50607463	     39.55423759	     -3.73675193	    -22.17369833	     -3.61687983	    -12.91148955	     14.83674386	     12.22373022	     14.49436472	     -2.33652757	     12.02362194
      3.94000000	    -15.42106327	      3.32797513	    -12.57198597	      1.93120381	     -0.04147283	     -0.40558742	     -3.17836087	     -1.83057946	      6.98160185	    -11.67674343	      3.01637531	     13.48909510	     17.86068773	     39.77943826	     -3.82862703	    -22.15378813	     -4.37193023	    -12.96829044	     14.49825901	     12.20384119	     14.68312052	     -2.40029754	     12.18158180
      3.94500000	    -15.44511318	      3.37315753	    -12.76655027	      1.93842146	     -0.04237107	     -0.40549828	     -3.27452861	     -2.01867113	      6.92627727	    -12.10732816	      2.65859012	     14.03229621	     18.21266905	     39.90889328	     -3.93070216	    -22.05607090	     -5.14350369	    -13.15732720	     14.01442185	     12.22780006	     14.78013743	     -2.44275166	     12.31388937
      3.95000000	    -15.44873570	      3.43401015	    -12.94533900	      1.94568659	     -0.04322909	     -0.40543549	     -3.37917969	     -2.23444419	      6.85389888	    -12.55168204	      2.27547543	     14.60927640	     18.56229833	     40.00568302	     -3.99728565	    -21.96105774	     -5.91151111	    -13.52567955	     13.43768170	     12.27673351	     14.85990679	     -2.51115763	     12.43310762
      3.95500000	    -15.44105243	      3.52415533	    -13.10733569	      1.95302490	     -0.04404428	     -0.40538681	     -3.47830684	     -2.49095685	      6.73203339	    -13.01324635	      1.86245436	     15.23916035	     18.93438805	     40.07689303	     -4.01571732	    -21.86350618	     -6.65472962	    -14.08062285	     12.73621571	     12.34338207	     14.94042968	     -2.62341443	     12.53861556
      3.96000000	    -15.41231963	      3.63521201	    -13.24129133	      1.96039637	     -0.04480017	     -0.40540115	     -3.57812732	     -2.78206842	      6.56849986	    -13.49964822	      1.41475161	     15.91006806	     19.34360528	     40.12156133	     -3.98317292	    -21.77377876	     -7.37333248	    -14.80690764	     11.91341780	     12.42307103	     15.00045771	     -2.76466151	     12.62259086
      3.96500000	    -15.36718402	      3.77444256	    -13.35160014	      1.96778481	     -0.04545362	     -0.40545399	     -3.66728441	     -3.11325002	      6.35167845	    -14.01150493	      0.90160872	     16.62415089	     19.79590130	     40.13708579	     -3.89748800	    -21.66747843	     -8.04343642	    -15.70696729	     10.97739408	     12.49348677	     15.04706373	     -2.94825351	     12.68399890
      3.97000000	    -15.31180946	      3.95823339	    -13.44503816	      1.97520970	     -0.04601399	     -0.40551676	     -3.73650527	     -3.49794636	      6.10026019	    -14.55176479	      0.34285911	     17.36331481	     20.24146749	     40.14265644	     -3.75356731	    -21.56253750	     -8.69524287	    -16.69190442	      9.92681066	     12.50526624	     15.09569203	     -3.18633208	     12.75663555
      3.97500000	    -15.24890887	      4.18502772	    -13.51716106	      1.98266218	     -0.04646619	     -0.40559883	     -3.78274333	     -3.93430040	      5.81165987	    -15.11831451	     -0.27642139	     18.12936173	     20.66838777	     40.14514276	     -3.54954391	    -21.41834177	     -9.34131140	    -17.69469742	      8.76728520	     12.43191535	     15.14905120	     -3.47773062	     12.84088214
      3.98000000	    -15.16462490	      4.43969471	    -13.57245804	      1.99003326	     -0.04678827	     -0.40571592	     -3.79524656	     -4.40870170	      5.47506295	    -15.75334958	     -0.95403987	     18.92963534	     21.14180181	     40.13350615	     -3.29741767	    -21.17378814	     -9.98968491	    -18.66825380	      7.51592730	     12.26520189	     15.16937043	     -3.81148430	     12.87270653
      3.98500000	    -15.08601781	      4.74194827	    -13.61154308	      1.99746340	     -0.04700872	     -0.40584044	     -3.77255940	     -4.93697209	      5.11611830	    -16.40833646	     -1.71651056	     19.74346043	     21.57945453	     40.14333899	     -2.98759553	    -20.87399782	    -10.67829959	    -19.50013973	      6.21332397	     11.96906519	     15.21620700	     -4.19491214	     12.96139766
      3.99000000	    -14.99469745	      5.07097885	    -13.65558257	      2.00485425	     -0.04710868	     -0.40595838	     -3.70185927	     -5.50310995	      4.70524116	    -17.13608940	     -2.56864835	     20.59012242	     22.03380158	     40.14800058	     -2.64529444	    -20.46766847	    -11.40115200	    -20.14344745	      4.88579392	     11.56092326	     15.25337473	     -4.61050954	     13.01928908
      3.99500000	    -14.87798479	      5.39276132	    -13.64161923	      2.01210752	     -0.04710089	     -0.40616369	     -3.61214864	     -6.07402765	      4.17819680	    -17.92675254	     -3.52582801	     21.45748177	     22.66763936	     40.16298937	     -2.25988756	    -19.93908519	    -12.19796221	    -20.59710404	      3.60574037	     10.99555146	     15.22797292	     -5.04789035	     13.00028934
      4.00000000	    -14.75414781	      5.70250136	    -13.61805523	      2.01943873	     -0.04698799	     -0.40639640	     -3.52309060	     -6.64788082	      3.61592527	    -18.69049483	     -4.71829445	     22.30800621	     23.60073074	     40.17644698	     -1.86606963	    -19.31986841	    -13.06771225	    -20.69700342	      2.46312685	     10.26707736	     15.20207458	     -5.47043294	     13.00496918
      4.00500000	    -14.65476213	      6.06027173	    -13.62487245	      2.02671389	     -0.04681364	     -0.40656452	     -3.31719780	     -7.27231712	      3.04893531	    -19.56936473	     -5.98384565	     23.15342822	     24.41520851	     40.22437683	     -1.45605287	    -18.78501397	    -13.96063953	    -20.63185802	      1.45626849	      9.56991117	     15.21708995	     -5.92990824	     13.04889809
      4.01000000	    -14.56524391	      6.43475001	    -13.66217325	      2.03396020	     -0.04657207	     -0.40665968	     -3.03785701	     -7.92475249	      2.45607308	    -20.48507732	     -7.47277701	     23.95025625	     25.65591302	     40.28138749	     -1.05978740	    -18.34206590	    -14.88975880	    -20.27554962	      0.75462571	      8.78432768	     15.25168251	     -6.39607439	     13.14546625
      4.01500000	    -14.51101175	      6.79213252	    -13.65917504	      2.04123540	     -0.04632412	     -0.40680538	     -2.67568250	     -8.56434870	      1.80386186	    -21.52170915	     -8.96230695	     24.86457333	     26.01472239	     40.36249233	     -0.66041031	    -17.97489010	    -15.77747255	    -19.95897531	      0.07792493	      8.46064318	     15.32001621	     -6.84532671	     13.18142664
      4.02000000	    -14.40054702	      7.07924342	    -13.64422396	      2.04828633	     -0.04591787	     -0.40709500	     -2.33146034	     -9.15781069	      1.10007723	    -22.54109920	    -10.86276923	     25.50912321	     27.47029335	     40.37788406	     -0.26728760	    -17.43609713	    -16.71092097	    -19.30737291	     -0.48277829	      7.43463401	     15.26841311	     -7.23207819	     13.18173784
      4.02500000	    -14.35938530	      7.39534397	    -13.65066698	      2.05538354	     -0.04555639	     -0.40729274	     -1.83978473	     -9.78640014	      0.35852887	    -23.64309368	    -12.91144981	     26.16311967	     28.82856273	     40.43019706	      0.09305236	    -17.16538655	    -17.56842661	    -18.65251645	     -0.76236945	      6.88762232	     15.31898915	     -7.62453814	     13.22634249
